<svg width="25" height="15" viewBox="0 0 25 15" fill="none" xmlns="http://www.w3.org/2000/svg">
<path d="M4 7.5C4 6.67157 4.67157 6 5.5 6H23.5C24.3284 6 25 6.67157 25 7.5V7.5C25 8.32843 24.3284 9 23.5 9H5.5C4.67157 9 4 8.32843 4 7.5V7.5Z" fill="#51D2B9"/>
<path d="M0 1.5C0 0.671573 0.671573 0 1.5 0H23.5C24.3284 0 25 0.671573 25 1.5V1.5C25 2.32843 24.3284 3 23.5 3H1.5C0.671573 3 0 2.32843 0 1.5V1.5Z" fill="#51D2B9"/>
<path d="M7 13.5C7 12.6716 7.67157 12 8.5 12H23.5C24.3284 12 25 12.6716 25 13.5V13.5C25 14.3284 24.3284 15 23.5 15H8.5C7.67157 15 7 14.3284 7 13.5V13.5Z" fill="#51D2B9"/>
</svg>
